<svg width="11" height="12" viewBox="0 0 11 12" fill="none" xmlns="http://www.w3.org/2000/svg">
<path d="M0.862279 6.38801L5.38788 1.86241C5.838 1.41228 6.4485 1.1594 7.08508 1.1594C7.72165 1.1594 8.33215 1.41228 8.78228 1.86241C9.2324 2.31253 9.48528 2.92303 9.48528 3.55961C9.48528 4.19618 9.2324 4.80668 8.78228 5.25681L3.40788 10.6304C3.18156 10.849 2.87843 10.9699 2.5638 10.9672C2.24916 10.9645 1.94819 10.8383 1.7257 10.6158C1.50321 10.3933 1.377 10.0923 1.37427 9.77769C1.37154 9.46305 1.49249 9.15993 1.71108 8.93361L6.51908 4.12561C6.59419 4.0506 6.63643 3.94883 6.6365 3.84269C6.63658 3.73654 6.59448 3.63472 6.51948 3.55961C6.44448 3.4845 6.34271 3.44226 6.23656 3.44218C6.13042 3.44211 6.02859 3.4842 5.95348 3.55921L1.14548 8.36721C0.773066 8.74279 0.564591 9.2506 0.565674 9.77951C0.566757 10.3084 0.777309 10.8154 1.15126 11.1894C1.5252 11.5635 2.03209 11.7742 2.56101 11.7754C3.08992 11.7766 3.59779 11.5683 3.97348 11.196L9.34788 5.82241C9.94812 5.22227 10.2854 4.40828 10.2854 3.55949C10.2855 2.7107 9.94841 1.89664 9.34828 1.29641C8.74815 0.696168 7.93415 0.358916 7.08536 0.358841C6.23657 0.358766 5.42252 0.695874 4.82228 1.29601L0.295878 5.82241C0.223015 5.89785 0.182698 5.99889 0.183609 6.10377C0.18452 6.20865 0.226588 6.30897 0.300751 6.38313C0.374914 6.4573 0.475239 6.49936 0.580118 6.50028C0.684997 6.50119 0.786038 6.46087 0.861479 6.38801H0.862279Z" fill="black"/>
</svg>
