<svg width="7" height="12" viewBox="0 0 7 12" fill="none" xmlns="http://www.w3.org/2000/svg">
<path d="M5.47488 11.3083L0.419883 6.40832C0.359883 6.34998 0.317483 6.28679 0.292683 6.21873C0.267483 6.15068 0.254883 6.07776 0.254883 5.99998C0.254883 5.92221 0.267483 5.84929 0.292683 5.78123C0.317483 5.71318 0.359883 5.64998 0.419883 5.59165L5.47488 0.677067C5.61488 0.540956 5.78988 0.4729 5.99988 0.4729C6.20988 0.4729 6.38988 0.545817 6.53988 0.69165C6.68988 0.837484 6.76488 1.00762 6.76488 1.20207C6.76488 1.39651 6.68988 1.56665 6.53988 1.71248L2.12988 5.99998L6.53988 10.2875C6.67988 10.4236 6.74988 10.5912 6.74988 10.7903C6.74988 10.9898 6.67488 11.1625 6.52488 11.3083C6.37488 11.4542 6.19988 11.5271 5.99988 11.5271C5.79988 11.5271 5.62488 11.4542 5.47488 11.3083Z" fill="black"/>
</svg>
