<svg width="16" height="16" viewBox="0 0 16 16" fill="none" xmlns="http://www.w3.org/2000/svg">
<g clip-path="url(#clip0_284_713)">
<path d="M12.5 12C12.2239 12 12 12.2239 12 12.5V13C12 13.5523 11.5523 14 11 14H5C4.44772 14 4 13.5523 4 13V12.5C4 12.2239 3.77614 12 3.5 12C3.22386 12 3 12.2239 3 12.5V14C3 14.2652 3.10536 14.5196 3.29289 14.7071C3.48043 14.8946 3.73478 15 4 15H12C12.2652 15 12.5196 14.8946 12.7071 14.7071C12.8946 14.5196 13 14.2652 13 14V12.5C13 12.2239 12.7761 12 12.5 12Z" fill="white"/>
<path d="M10.3586 10.6414C10.4367 10.5633 10.4367 10.4367 10.3586 10.3586L9.93442 9.93442C9.85632 9.85632 9.72968 9.85632 9.65158 9.93442L8.84142 10.7446C8.71543 10.8706 8.5 10.7813 8.5 10.6032V7.2C8.5 7.08954 8.41046 7 8.3 7H7.7C7.58954 7 7.5 7.08954 7.5 7.2V10.6032C7.5 10.7813 7.28457 10.8706 7.15858 10.7446L6.34842 9.93442C6.27032 9.85632 6.14368 9.85632 6.06558 9.93442L5.64142 10.3586C5.56332 10.4367 5.56332 10.5633 5.64142 10.6414L7.85858 12.8586C7.93668 12.9367 8.06332 12.9367 8.14142 12.8586L10.3586 10.6414Z" fill="white"/>
<path d="M13.8 2C13.9105 2 14 1.91046 14 1.8V1.2C14 1.08954 13.9105 1 13.8 1H11.2C11.0895 1 11 1.08954 11 1.2V5.8C11 5.91046 11.0895 6 11.2 6H11.8C11.9105 6 12 5.91046 12 5.8V4.2C12 4.08954 12.0895 4 12.2 4H13.3C13.4105 4 13.5 3.91046 13.5 3.8V3.2C13.5 3.08954 13.4105 3 13.3 3H12.2C12.0895 3 12 2.91046 12 2.8V2.2C12 2.08954 12.0895 2 12.2 2H13.8Z" fill="white"/>
<path d="M8.5 6H6.5V1H8.5C8.89769 1.00044 9.27897 1.15861 9.56018 1.43982C9.84139 1.72103 9.99956 2.10231 10 2.5V4.5C9.99956 4.89769 9.84139 5.27897 9.56018 5.56018C9.27897 5.84139 8.89769 5.99956 8.5 6ZM7.5 5H8.5C8.63256 4.99985 8.75966 4.94713 8.85339 4.85339C8.94713 4.75966 8.99985 4.63256 9 4.5V2.5C8.99985 2.36744 8.94713 2.24034 8.85339 2.14661C8.75966 2.05287 8.63256 2.00015 8.5 2H7.5V5Z" fill="white"/>
<path d="M4.5 1H2.2C2.08954 1 2 1.08954 2 1.2V5.8C2 5.91046 2.08954 6 2.2 6H2.8C2.91046 6 3 5.91046 3 5.8V4.7C3 4.58954 3.08954 4.5 3.2 4.5H4.5C4.76511 4.49964 5.01925 4.39417 5.20671 4.20671C5.39417 4.01925 5.49964 3.76511 5.5 3.5V2C5.4997 1.73488 5.39424 1.4807 5.20677 1.29323C5.0193 1.10576 4.76512 1.0003 4.5 1ZM3.2 3.5C3.08954 3.5 3 3.41046 3 3.3V2.2C3 2.08954 3.08954 2 3.2 2H4.30007C4.4105 2 4.50003 2.0895 4.50007 2.19993L4.50043 3.29993C4.50047 3.41042 4.41092 3.5 4.30043 3.5H3.2Z" fill="white"/>
</g>
<defs>
<clipPath id="clip0_284_713">
<rect width="16" height="16" fill="white"/>
</clipPath>
</defs>
</svg>
