<svg width="24" height="24" viewBox="0 0 24 24" fill="none" xmlns="http://www.w3.org/2000/svg">
<path d="M12.75 22.25H11.25C10.4212 22.25 9.75 21.5788 9.75 20.75V19.25H14.25V20.75C14.25 21.5788 13.5788 22.25 12.75 22.25Z" stroke="#56DCD3" stroke-width="1.8" stroke-miterlimit="10" stroke-linejoin="round"/>
<path d="M17.25 11C17.25 12.8885 16.3605 14.6667 14.85 15.8L14.25 16.25V19.25H9.75V16.25L9.15 15.8C7.6395 14.6667 6.75 12.8885 6.75 11C6.75 8.1005 9.1005 5.75 12 5.75C14.8995 5.75 17.25 8.1005 17.25 11Z" stroke="#56DCD3" stroke-width="1.8" stroke-miterlimit="10" stroke-linejoin="round"/>
<path d="M12 3.5V0.5" stroke="#56DCD3" stroke-width="2" stroke-miterlimit="10" stroke-linejoin="round"/>
<path d="M6.69756 5.6967L4.57581 3.57495" stroke="#56DCD3" stroke-width="2" stroke-miterlimit="10" stroke-linejoin="round"/>
<path d="M17.3025 5.6967L19.4242 3.57495" stroke="#56DCD3" stroke-width="2" stroke-miterlimit="10" stroke-linejoin="round"/>
<path d="M4.5 11H1.5" stroke="#56DCD3" stroke-width="2" stroke-miterlimit="10" stroke-linejoin="round"/>
<path d="M19.5 11H22.5" stroke="#56DCD3" stroke-width="2" stroke-miterlimit="10" stroke-linejoin="round"/>
</svg>
