<svg width="24" height="24" viewBox="0 0 24 24" fill="none" xmlns="http://www.w3.org/2000/svg">
<g clip-path="url(#clip0_492_1551)">
<path d="M18.75 18C18.3358 18 18 18.3358 18 18.75V20C18 20.5523 17.5523 21 17 21H7C6.44772 21 6 20.5523 6 20V18.75C6 18.3358 5.66421 18 5.25 18C4.83579 18 4.5 18.3358 4.5 18.75V21C4.5 21.3978 4.65804 21.7794 4.93934 22.0607C5.22064 22.342 5.60218 22.5 6 22.5H18C18.3978 22.5 18.7794 22.342 19.0607 22.0607C19.342 21.7794 19.5 21.3978 19.5 21V18.75C19.5 18.3358 19.1642 18 18.75 18Z" fill="#56DCD3"/>
<path d="M15.6086 15.8914C15.6867 15.8133 15.6867 15.6867 15.6086 15.6086L14.8309 14.8309C14.7528 14.7528 14.6262 14.7528 14.5481 14.8309L13.0914 16.2876C12.9654 16.4136 12.75 16.3243 12.75 16.1462V10.7C12.75 10.5895 12.6605 10.5 12.55 10.5H11.45C11.3395 10.5 11.25 10.5895 11.25 10.7V16.1462C11.25 16.3243 11.0346 16.4136 10.9086 16.2876L9.45192 14.8309C9.37382 14.7528 9.24718 14.7528 9.16908 14.8309L8.39142 15.6086C8.31332 15.6867 8.31332 15.8133 8.39142 15.8914L11.8586 19.3586C11.9367 19.4367 12.0633 19.4367 12.1414 19.3586L15.6086 15.8914Z" fill="#56DCD3"/>
<path d="M20.8 3C20.9105 3 21 2.91046 21 2.8V1.7C21 1.58954 20.9105 1.5 20.8 1.5H16.7C16.5895 1.5 16.5 1.58954 16.5 1.7V8.8C16.5 8.91046 16.5895 9 16.7 9H17.8C17.9105 9 18 8.91046 18 8.8V6.2C18 6.08954 18.0895 6 18.2 6H20.05C20.1605 6 20.25 5.91046 20.25 5.8V4.7C20.25 4.58954 20.1605 4.5 20.05 4.5H18.2C18.0895 4.5 18 4.41046 18 4.3V3.2C18 3.08954 18.0895 3 18.2 3H20.8Z" fill="#56DCD3"/>
<path d="M12.75 9H9.75V1.5H12.75C13.3465 1.50066 13.9185 1.73792 14.3403 2.15973C14.7621 2.58155 14.9993 3.15346 15 3.75V6.75C14.9993 7.34654 14.7621 7.91845 14.3403 8.34027C13.9185 8.76208 13.3465 8.99934 12.75 9ZM11.25 7.5H12.75C12.9488 7.49978 13.1395 7.42069 13.2801 7.28009C13.4207 7.13948 13.4998 6.94885 13.5 6.75V3.75C13.4998 3.55115 13.4207 3.36052 13.2801 3.21991C13.1395 3.07931 12.9488 3.00022 12.75 3H11.25V7.5Z" fill="#56DCD3"/>
<path d="M6.75 1.5H3.2C3.08954 1.5 3 1.58954 3 1.7V8.8C3 8.91046 3.08954 9 3.2 9H4.3C4.41046 9 4.5 8.91046 4.5 8.8V6.95C4.5 6.83954 4.58954 6.75 4.7 6.75H6.75C7.14766 6.74946 7.52888 6.59126 7.81007 6.31007C8.09126 6.02888 8.24946 5.64766 8.25 5.25V3C8.24954 2.60232 8.09136 2.22105 7.81016 1.93984C7.52895 1.65864 7.14768 1.50046 6.75 1.5ZM4.7 5.25C4.58954 5.25 4.5 5.16046 4.5 5.05V3.2C4.5 3.08954 4.58954 3 4.7 3H6.55007C6.6605 3 6.75003 3.0895 6.75007 3.19993L6.75068 5.04993C6.75072 5.16042 6.66117 5.25 6.55068 5.25H4.7Z" fill="#56DCD3"/>
</g>
<defs>
<clipPath id="clip0_492_1551">
<rect width="24" height="24" fill="white"/>
</clipPath>
</defs>
</svg>
