<svg width="20" height="20" viewBox="0 0 20 20" fill="none" xmlns="http://www.w3.org/2000/svg">
<path d="M6.43335 13.7133L7.90085 13.29L16.7367 4.34833C16.8064 4.27691 16.8452 4.18094 16.8447 4.08115C16.8443 3.98136 16.8045 3.88576 16.7342 3.815L16.205 3.28C16.1708 3.24486 16.13 3.21689 16.0849 3.19771C16.0397 3.17854 15.9912 3.16854 15.9422 3.16831C15.8932 3.16807 15.8446 3.17761 15.7993 3.19636C15.754 3.21511 15.7129 3.24269 15.6784 3.2775L6.86585 12.1958L6.43252 13.7125L6.43335 13.7133ZM17.2525 2.22L17.7817 2.75583C18.5117 3.495 18.5184 4.6875 17.795 5.41917L8.69002 14.6342L5.55335 15.5375C5.36185 15.5911 5.1569 15.5665 4.98349 15.4692C4.81007 15.3719 4.68235 15.2097 4.62835 15.0183C4.58817 14.8807 4.58759 14.7346 4.62669 14.5967L5.53919 11.3967L14.62 2.20583C14.7927 2.03196 14.9983 1.89422 15.2247 1.80063C15.4512 1.70703 15.694 1.65947 15.9391 1.66071C16.1841 1.66196 16.4264 1.71197 16.652 1.80785C16.8775 1.90374 17.0816 2.04356 17.2525 2.21917V2.22ZM7.65335 3.18083C8.06669 3.18083 8.40169 3.52 8.40169 3.93833C8.40235 4.03722 8.38351 4.13527 8.34624 4.22688C8.30898 4.31848 8.25403 4.40184 8.18453 4.47219C8.11503 4.54254 8.03234 4.59851 7.9412 4.63688C7.85006 4.67525 7.75224 4.69529 7.65335 4.69583H4.66002C3.83335 4.69583 3.16335 5.37417 3.16335 6.21V15.2983C3.16335 16.135 3.83335 16.8133 4.66002 16.8133H13.64C14.4667 16.8133 15.1375 16.135 15.1375 15.2983V12.2692C15.1375 11.8508 15.4725 11.5117 15.8859 11.5117C16.2992 11.5117 16.6342 11.8508 16.6342 12.27V15.2983C16.6342 16.9717 15.2934 18.3283 13.64 18.3283H4.66002C3.00669 18.3283 1.66669 16.9717 1.66669 15.2983V6.21C1.66669 4.5375 3.00669 3.18083 4.66002 3.18083H7.65335Z" fill="#56DCD3"/>
</svg>
