<svg width="24" height="24" viewBox="0 0 24 24" fill="none" xmlns="http://www.w3.org/2000/svg">
<g clip-path="url(#clip0_10_142)">
<path d="M12.0666 7.23334C9.41134 7.23334 7.2999 9.34478 7.2999 12C7.2999 14.6552 9.41134 16.7667 12.0666 16.7667C14.7218 16.7667 16.8332 14.6552 16.8332 12C16.8332 9.34478 14.7218 7.23334 12.0666 7.23334ZM12.0666 15.2333C10.2551 15.2333 8.83324 13.8114 8.83324 12C8.83324 10.1886 10.2551 8.76668 12.0666 8.76668C13.878 8.76668 15.2999 10.1886 15.2999 12C15.2999 13.8114 13.878 15.2333 12.0666 15.2333Z" fill="#56DCD3" stroke="#56DCD3" stroke-width="0.2"/>
<path d="M20.6213 6.51409L20.6213 6.51411L20.6227 6.5114C20.8409 6.07495 20.7693 5.49466 20.404 5.1293L18.804 3.5293C18.4386 3.16394 17.8583 3.09234 17.4219 3.31057L17.4218 3.31053L17.4192 3.31196L15.727 4.22314L14.8141 3.85796L14.2285 2.03607L14.2281 2.03505C14.0826 1.59844 13.6472 1.23334 13.1333 1.23334H10.8666C10.3548 1.23334 9.91313 1.59747 9.83552 2.11061L9.2565 3.912C8.88866 3.98042 8.57424 4.1053 8.26433 4.28522L6.58066 3.37863L6.58068 3.37859L6.57797 3.37723C6.14152 3.15901 5.56123 3.23061 5.19587 3.59597L3.59587 5.19597C3.23052 5.56132 3.15892 6.14161 3.37714 6.57806L3.37713 6.57807L3.37786 6.57948L4.22345 8.20561C4.16187 8.36203 4.10045 8.53094 4.03959 8.69829L4.03927 8.69917C3.97832 8.86679 3.91793 9.03283 3.8577 9.18592L2.03598 9.77147L2.03496 9.77181C1.59834 9.91735 1.23325 10.3527 1.23325 10.8667V13.1333C1.23325 13.6497 1.60103 14.0846 2.10419 14.229L3.92454 14.8142L4.28971 15.7271L3.37854 17.4193L3.3785 17.4192L3.37714 17.422C3.15892 17.8584 3.23052 18.4387 3.59587 18.8041L5.19587 20.4041C5.56123 20.7694 6.14152 20.841 6.57797 20.6228L6.57799 20.6228L6.58066 20.6214L8.27284 19.7102L9.1852 20.0752L9.77108 21.963L9.77106 21.963L9.77172 21.965C9.91726 22.4016 10.3526 22.7667 10.8666 22.7667H13.1333C13.6472 22.7667 14.0826 22.4016 14.2281 21.965L14.2281 21.965L14.2288 21.963L14.8146 20.0752L15.727 19.7102L17.4192 20.6214L17.4192 20.6214L17.4219 20.6228C17.8583 20.841 18.4386 20.7694 18.804 20.4041L20.404 18.8041C20.7693 18.4387 20.8409 17.8584 20.6227 17.422L20.6227 17.4219L20.6213 17.4193L19.7101 15.7271L20.0751 14.8147L21.9629 14.2289L21.9629 14.2289L21.9649 14.2282C22.4015 14.0827 22.7666 13.6473 22.7666 13.1333V10.8667C22.7666 10.3575 22.406 9.85097 21.8957 9.70432L20.0753 9.1192L19.7101 8.20627L20.6213 6.51409ZM18.904 13.571L18.8469 13.5885L18.8352 13.6471L18.7706 13.9702L18.1773 15.3544L17.9808 15.6819L17.9514 15.731L17.9788 15.7812L19.143 17.9155L17.9154 19.1431L15.7811 17.9789L15.7309 17.9515L15.6818 17.9809L15.3503 18.1799C15.35 18.18 15.3497 18.1802 15.3494 18.1804C14.8906 18.4425 14.4329 18.6386 13.9763 18.7694L13.647 18.8353L13.5884 18.847L13.571 18.9041L12.8592 21.2333H11.1406L10.4289 18.9041L10.4114 18.847L10.3529 18.8353L10.0297 18.7707L8.64554 18.1774L8.31804 17.9809L8.26895 17.9515L8.2187 17.9789L6.08439 19.1431L4.85687 17.9155L6.02104 15.7812L6.04845 15.731L6.019 15.6819L5.81955 15.3495C5.55746 14.8907 5.36133 14.433 5.23051 13.9764L5.16464 13.6471L5.15293 13.5885L5.09581 13.571L2.76659 12.8593V11.1415L4.96147 10.4959L5.00806 10.4822L5.0261 10.4372L5.15943 10.1038L5.16029 10.1042L5.1636 10.0909C5.2943 9.56812 5.49031 9.1102 5.75289 8.65054L5.95233 8.31813L5.98098 8.27038L5.95548 8.22088L4.85558 6.08577L6.08366 4.85769L8.15089 6.0205L8.20154 6.04899L8.25137 6.01909L8.58377 5.81965C9.04343 5.55707 9.50135 5.36106 10.0242 5.23036L10.0244 5.23126L10.0371 5.22619L10.3704 5.09286L10.4144 5.07524L10.4287 5.02999L11.14 2.76668H12.8599L13.5712 5.02999L13.5854 5.07524L13.6294 5.09286L13.9628 5.22619L13.9626 5.22668L13.9724 5.2295C14.4303 5.36031 14.8893 5.55681 15.3494 5.81965L15.6818 6.01909L15.7309 6.04854L15.7811 6.02113L17.9154 4.85696L19.143 6.08448L17.9788 8.21879L17.9514 8.26904L17.9808 8.31813L18.1798 8.64962C18.1799 8.64992 18.1801 8.65022 18.1803 8.65052C18.4424 9.10935 18.6385 9.56703 18.7693 10.0236L18.8352 10.353L18.8469 10.4115L18.904 10.429L21.2333 11.1407V12.8593L18.904 13.571Z" fill="#56DCD3" stroke="#56DCD3" stroke-width="0.2"/>
</g>
<defs>
<clipPath id="clip0_10_142">
<rect width="24" height="24" fill="white"/>
</clipPath>
</defs>
</svg>
