<svg width="58" height="82" viewBox="0 0 58 82" fill="none" xmlns="http://www.w3.org/2000/svg">
<path d="M29 5.85714C31.8678 5.85714 34.6713 6.71593 37.0558 8.32491C39.4403 9.93389 41.2988 12.2208 42.3963 14.8964C43.4937 17.5721 43.7809 20.5162 43.2214 23.3567C42.6619 26.1971 41.2809 28.8062 39.253 30.8541C37.2252 32.9019 34.6415 34.2965 31.8288 34.8615C29.0161 35.4265 26.1006 35.1365 23.4511 34.0282C20.8016 32.92 18.537 31.0431 16.9437 28.6351C15.3504 26.2271 14.5 23.3961 14.5 20.5C14.5 16.6165 16.0277 12.892 18.747 10.1459C21.4662 7.39987 25.1544 5.85714 29 5.85714ZM29 0C24.985 0 21.0602 1.2023 17.7219 3.45487C14.3836 5.70744 11.7817 8.90911 10.2452 12.655C8.70879 16.4009 8.30678 20.5227 9.09006 24.4994C9.87334 28.476 11.8067 32.1287 14.6457 34.9957C17.4847 37.8627 21.1019 39.8151 25.0397 40.6061C28.9775 41.3971 33.0591 40.9911 36.7685 39.4395C40.4778 37.8879 43.6482 35.2604 45.8788 31.8892C48.1094 28.518 49.3 24.5545 49.3 20.5C49.3 15.0631 47.1613 9.84881 43.3543 6.00431C39.5473 2.15982 34.3839 0 29 0ZM58 79.1C58 80.7016 56.7016 82 55.1 82C53.4984 82 52.2 80.7016 52.2 79.1V67.3571C52.2 63.4736 50.6723 59.7491 47.953 57.0031C45.2338 54.257 41.5456 52.7143 37.7 52.7143H20.3C16.4544 52.7143 12.7662 54.257 10.047 57.0031C7.32767 59.7491 5.8 63.4736 5.8 67.3571V79.1C5.8 80.7016 4.50163 82 2.9 82C1.29837 82 0 80.7016 0 79.1V67.3571C0 61.9202 2.13874 56.706 5.94573 52.8615C9.75272 49.017 14.9161 46.8571 20.3 46.8571H37.7C43.0839 46.8571 48.2473 49.017 52.0543 52.8615C55.8613 56.706 58 61.9202 58 67.3571V79.1Z" fill="#BCBEC0"/>
</svg>
